<?xml version="1.0" encoding="utf-8"?>
<svg version="1.1" id="Layer_1"
  xmlns="http://www.w3.org/2000/svg"
  xmlns:xlink="http://www.w3.org/1999/xlink" x="0px" y="0px" viewBox="0 0 448 512" xml:space="preserve">
  <path d="M421.2,179.2l-36.3,36.3L264.4,95.1l36.3-36.3c26.5-26.5,69.4-26.5,96,0l24.4,24.4C447.6,109.7,447.6,152.6,421.2,179.2z"/>
  <path d="M346.3,254L167.9,432.3c-7,7-15.6,11.9-25.3,14.2L40.7,472c-9.3,2.4-19-0.3-25.8-7.1c-6.8-6.8-9.5-16.5-7.1-25.8l25.4-102
	c2.4-9.5,7.3-18.3,14.2-25.3v0.2l178.5-178.5L346.3,254z"/>
</svg>
